<svg xmlns="http://www.w3.org/2000/svg" width="99" height="130.528" viewBox="0 0 99 130.528">
  <g id="Group_8" data-name="Group 8" transform="translate(-231 -835.472)">
    <line id="Line_5" data-name="Line 5" y2="77" transform="translate(232.5 887.5)" fill="none" stroke="#4784a8" stroke-width="3"/>
    <line id="Line_6" data-name="Line 6" x1="96" transform="translate(232.5 964.5)" fill="none" stroke="#4784a8" stroke-width="3"/>
    <line id="Line_7" data-name="Line 7" y2="77" transform="translate(328.5 887.5)" fill="none" stroke="#4784a8" stroke-width="3"/>
    <line id="Line_8" data-name="Line 8" y1="51" x2="48" transform="translate(232.5 836.5)" fill="none" stroke="#4784a8" stroke-width="3"/>
    <line id="Line_9" data-name="Line 9" x1="48" y1="51" transform="translate(280.5 836.5)" fill="none" stroke="#4784a8" stroke-width="3"/>
    <line id="Line_10" data-name="Line 10" x2="96" transform="translate(232.5 887.5)" fill="none" stroke="#4784a8" stroke-width="3"/>
    <line id="Line_11" data-name="Line 11" y1="32" transform="translate(265.5 932.5)" fill="none" stroke="#4784a8" stroke-width="3"/>
    <line id="Line_12" data-name="Line 12" x1="30" transform="translate(265.5 932.5)" fill="none" stroke="#4784a8" stroke-width="3"/>
    <line id="Line_13" data-name="Line 13" y1="32" transform="translate(295.5 932.5)" fill="none" stroke="#4784a8" stroke-width="3"/>
    <g id="Rectangle_8" data-name="Rectangle 8" transform="translate(242 899)" fill="#fff" stroke="#4784a8" stroke-width="3">
      <rect width="19" height="18" stroke="none"/>
      <rect x="1.5" y="1.5" width="16" height="15" fill="none"/>
    </g>
    <line id="Line_14" data-name="Line 14" y2="18" transform="translate(251.5 899.5)" fill="none" stroke="#4784a8" stroke-width="3"/>
    <line id="Line_15" data-name="Line 15" x2="19" transform="translate(242.5 908.5)" fill="none" stroke="#4784a8" stroke-width="3"/>
    <g id="Rectangle_9" data-name="Rectangle 9" transform="translate(300 900)" fill="#fff" stroke="#4784a8" stroke-width="3">
      <rect width="19" height="18" stroke="none"/>
      <rect x="1.5" y="1.5" width="16" height="15" fill="none"/>
    </g>
    <line id="Line_16" data-name="Line 16" y2="18" transform="translate(309.5 900.5)" fill="none" stroke="#4784a8" stroke-width="3"/>
    <line id="Line_17" data-name="Line 17" x2="19" transform="translate(300.5 909.5)" fill="none" stroke="#4784a8" stroke-width="3"/>
  </g>
</svg>
